<?xml version="1.0" encoding="UTF-8" standalone="no"?>
<svg
   xmlns:dc="http://purl.org/dc/elements/1.1/"
   xmlns:cc="http://creativecommons.org/ns#"
   xmlns:rdf="http://www.w3.org/1999/02/22-rdf-syntax-ns#"
   xmlns:svg="http://www.w3.org/2000/svg"
   xmlns="http://www.w3.org/2000/svg"
   xmlns:xlink="http://www.w3.org/1999/xlink"
   xmlns:sodipodi="http://sodipodi.sourceforge.net/DTD/sodipodi-0.dtd"
   xmlns:inkscape="http://www.inkscape.org/namespaces/inkscape"
   width="3575.196850393701"
   height="4932.283464566929"
   id="box"
   version="1.1"
   inkscape:version="0.91 r13725"
   sodipodi:docname="box_500x380x500_3mm-fermeÌe.svg">
  <defs
     id="defs4" />
  <sodipodi:namedview
     id="base"
     pagecolor="#ffffff"
     bordercolor="#666666"
     borderopacity="1.0"
     inkscape:pageopacity="0.0"
     inkscape:pageshadow="2"
     inkscape:document-units="mm"
     inkscape:current-layer="layer1"
     showgrid="false"
     fit-margin-top="0"
     fit-margin-left="0"
     fit-margin-right="0"
     fit-margin-bottom="0"
     units="mm"
     inkscape:window-maximized="1"
     inkscape:zoom="0.095696036"
     inkscape:cx="1845.0966"
     inkscape:cy="2741.8267"
     inkscape:window-width="1440"
     inkscape:window-height="851"
     inkscape:window-x="0"
     inkscape:window-y="1" />
  <metadata
     id="metadata7">
    <rdf:rdf>
      <cc:work
         rdf:about="">
        <dc:format>image/svg+xml</dc:format>
        <dc:type
           rdf:resource="http://purl.org/dc/dcmitype/StillImage" />
        <dc:title />
      </cc:work>
    </rdf:rdf>
    <rdf:RDF>
      <cc:Work
         rdf:about="">
        <dc:format>image/svg+xml</dc:format>
        <dc:type
           rdf:resource="http://purl.org/dc/dcmitype/StillImage" />
      </cc:Work>
    </rdf:RDF>
  </metadata>
  <g
     inkscape:label="Calque 1"
     inkscape:groupmode="layer"
     id="layer1">
    <path
       style="fill:none;stroke:#ff0000"
       id="top"
       d="m 0,0 24.95286680714207,0 0,10.62992125984252 24.95286680714207,0 0,-10.62992125984252 24.95286680714207,0 0,10.62992125984252 24.95286680714207,0 0,-10.62992125984252 24.95286680714207,0 0,10.62992125984252 24.95286680714207,0 0,-10.62992125984252 24.95286680714207,0 0,10.62992125984252 24.95286680714207,0 0,-10.62992125984252 24.95286680714207,0 0,10.62992125984252 24.95286680714207,0 0,-10.62992125984252 24.95286680714207,0 0,10.62992125984252 24.95286680714207,0 0,-10.62992125984252 24.95286680714207,0 0,10.62992125984252 24.95286680714207,0 0,-10.62992125984252 24.95286680714207,0 0,10.62992125984252 24.95286680714207,0 0,-10.62992125984252 24.95286680714207,0 0,10.62992125984252 24.95286680714207,0 0,-10.62992125984252 24.95286680714207,0 0,10.62992125984252 24.95286680714207,0 0,-10.62992125984252 24.95286680714207,0 0,10.62992125984252 24.95286680714207,0 0,-10.62992125984252 24.95286680714207,0 0,10.62992125984252 24.95286680714207,0 0,-10.62992125984252 24.95286680714207,0 0,10.62992125984252 24.95286680714207,0 0,-10.62992125984252 24.95286680714207,0 0,10.62992125984252 24.95286680714207,0 0,-10.62992125984252 24.95286680714207,0 0,10.62992125984252 24.95286680714207,0 0,-10.62992125984252 24.95286680714207,0 0,10.62992125984252 24.95286680714207,0 0,-10.62992125984252 24.95286680714207,0 0,10.62992125984252 24.95286680714207,0 0,-10.62992125984252 24.95286680714207,0 0,10.62992125984252 24.95286680714207,0 0,-10.62992125984252 24.95286680714207,0 0,10.62992125984252 24.95286680714207,0 0,-10.62992125984252 24.95286680714207,0 0,10.62992125984252 24.95286680714207,0 0,-10.62992125984252 24.95286680714207,0 0,10.62992125984252 24.95286680714207,0 0,-10.62992125984252 24.95286680714207,0 0,10.62992125984252 24.95286680714207,0 0,-10.62992125984252 24.95286680714207,0 0,10.62992125984252 24.95286680714207,0 0,-10.62992125984252 24.95286680714207,0 0,10.62992125984252 24.95286680714207,0 0,-10.62992125984252 24.95286680714207,0 0,10.62992125984252 24.95286680714207,0 0,-10.62992125984252 24.95286680714207,0 0,10.62992125984252 24.95286680714207,0 0,-10.62992125984252 24.95286680714207,0 0,10.62992125984252 24.95286680714207,0 0,-10.62992125984252 24.95286680714207,0 0,10.62992125984252 24.95286680714207,0 0,-10.62992125984252 24.95286680714207,0 0,10.62992125984252 24.95286680714207,0 0,-10.62992125984252 24.95286680714207,0 0,10.62992125984252 24.95286680714207,0 0,-10.62992125984252 24.95286680714207,0 0,10.62992125984252 24.95286680714207,0 0,-10.62992125984252 24.95286680714207,0 0,10.62992125984252 24.95286680714207,0 0,-10.62992125984252 24.95286680714207,0 0,10.62992125984252 24.95286680714207,0 0,-10.62992125984252 24.95286680714207,0 0,10.62992125984252 24.95286680714207,0 0,-10.62992125984252 24.95286680714207,0 0,10.62992125984252 24.95286680714207,0 0,-10.62992125984252 24.95286680714207,0 0,25.404843262516714 -10.62992125984252,0 0,25.404843262516714 10.62992125984252,0 0,25.404843262516714 -10.62992125984252,0 0,25.404843262516714 10.62992125984252,0 0,25.404843262516714 -10.62992125984252,0 0,25.404843262516714 10.62992125984252,0 0,25.404843262516714 -10.62992125984252,0 0,25.404843262516714 10.62992125984252,0 0,25.404843262516714 -10.62992125984252,0 0,25.404843262516714 10.62992125984252,0 0,25.404843262516714 -10.62992125984252,0 0,25.404843262516714 10.62992125984252,0 0,25.404843262516714 -10.62992125984252,0 0,25.404843262516714 10.62992125984252,0 0,25.404843262516714 -10.62992125984252,0 0,25.404843262516714 10.62992125984252,0 0,25.404843262516714 -10.62992125984252,0 0,25.404843262516714 10.62992125984252,0 0,25.404843262516714 -10.62992125984252,0 0,25.404843262516714 10.62992125984252,0 0,25.404843262516714 -10.62992125984252,0 0,25.404843262516714 10.62992125984252,0 0,25.404843262516714 -10.62992125984252,0 0,25.404843262516714 10.62992125984252,0 0,25.404843262516714 -10.62992125984252,0 0,25.404843262516714 10.62992125984252,0 0,25.404843262516714 -10.62992125984252,0 0,25.404843262516714 10.62992125984252,0 0,25.404843262516714 -10.62992125984252,0 0,25.404843262516714 10.62992125984252,0 0,25.404843262516714 -10.62992125984252,0 0,25.404843262516714 10.62992125984252,0 0,25.404843262516714 -10.62992125984252,0 0,25.404843262516714 10.62992125984252,0 0,25.404843262516714 -10.62992125984252,0 0,25.404843262516714 10.62992125984252,0 0,25.404843262516714 -10.62992125984252,0 0,25.404843262516714 10.62992125984252,0 0,25.404843262516714 -10.62992125984252,0 0,25.404843262516714 10.62992125984252,0 0,25.404843262516714 -10.62992125984252,0 0,25.404843262516714 10.62992125984252,0 0,25.404843262516714 -10.62992125984252,0 0,25.404843262516714 10.62992125984252,0 0,25.404843262516714 -10.62992125984252,0 0,25.404843262516714 10.62992125984252,0 0,25.404843262516714 -10.62992125984252,0 0,25.404843262516714 10.62992125984252,0 0,25.404843262516714 -10.62992125984252,0 0,25.404843262516714 10.62992125984252,0 0,25.404843262516714 -10.62992125984252,0 0,25.404843262516714 10.62992125984252,0 0,25.404843262516714 -24.95286680714207,0 0,-10.62992125984252 -24.95286680714207,0 0,10.62992125984252 -24.95286680714207,0 0,-10.62992125984252 -24.95286680714207,0 0,10.62992125984252 -24.95286680714207,0 0,-10.62992125984252 -24.95286680714207,0 0,10.62992125984252 -24.95286680714207,0 0,-10.62992125984252 -24.95286680714207,0 0,10.62992125984252 -24.95286680714207,0 0,-10.62992125984252 -24.95286680714207,0 0,10.62992125984252 -24.95286680714207,0 0,-10.62992125984252 -24.95286680714207,0 0,10.62992125984252 -24.95286680714207,0 0,-10.62992125984252 -24.95286680714207,0 0,10.62992125984252 -24.95286680714207,0 0,-10.62992125984252 -24.95286680714207,0 0,10.62992125984252 -24.95286680714207,0 0,-10.62992125984252 -24.95286680714207,0 0,10.62992125984252 -24.95286680714207,0 0,-10.62992125984252 -24.95286680714207,0 0,10.62992125984252 -24.95286680714207,0 0,-10.62992125984252 -24.95286680714207,0 0,10.62992125984252 -24.95286680714207,0 0,-10.62992125984252 -24.95286680714207,0 0,10.62992125984252 -24.95286680714207,0 0,-10.62992125984252 -24.95286680714207,0 0,10.62992125984252 -24.95286680714207,0 0,-10.62992125984252 -24.95286680714207,0 0,10.62992125984252 -24.95286680714207,0 0,-10.62992125984252 -24.95286680714207,0 0,10.62992125984252 -24.95286680714207,0 0,-10.62992125984252 -24.95286680714207,0 0,10.62992125984252 -24.95286680714207,0 0,-10.62992125984252 -24.95286680714207,0 0,10.62992125984252 -24.95286680714207,0 0,-10.62992125984252 -24.95286680714207,0 0,10.62992125984252 -24.95286680714207,0 0,-10.62992125984252 -24.95286680714207,0 0,10.62992125984252 -24.95286680714207,0 0,-10.62992125984252 -24.95286680714207,0 0,10.62992125984252 -24.95286680714207,0 0,-10.62992125984252 -24.95286680714207,0 0,10.62992125984252 -24.95286680714207,0 0,-10.62992125984252 -24.95286680714207,0 0,10.62992125984252 -24.95286680714207,0 0,-10.62992125984252 -24.95286680714207,0 0,10.62992125984252 -24.95286680714207,0 0,-10.62992125984252 -24.95286680714207,0 0,10.62992125984252 -24.95286680714207,0 0,-10.62992125984252 -24.95286680714207,0 0,10.62992125984252 -24.95286680714207,0 0,-10.62992125984252 -24.95286680714207,0 0,10.62992125984252 -24.95286680714207,0 0,-10.62992125984252 -24.95286680714207,0 0,10.62992125984252 -24.95286680714207,0 0,-10.62992125984252 -24.95286680714207,0 0,10.62992125984252 -24.95286680714207,0 0,-10.62992125984252 -24.95286680714207,0 0,10.62992125984252 -24.95286680714207,0 0,-10.62992125984252 -24.95286680714207,0 0,10.62992125984252 -24.95286680714207,0 0,-10.62992125984252 -24.95286680714207,0 0,10.62992125984252 -24.95286680714207,0 0,-10.62992125984252 -24.95286680714207,0 0,10.62992125984252 -24.95286680714207,0 0,-10.62992125984252 -24.95286680714207,0 0,10.62992125984252 -24.95286680714207,0 0,-10.62992125984252 -24.95286680714207,0 0,10.62992125984252 -24.95286680714207,0 0,-10.62992125984252 -24.95286680714207,0 0,10.62992125984252 -24.95286680714207,0 0,-25.404843262516714 10.62992125984252,0 0,-25.404843262516714 -10.62992125984252,0 0,-25.404843262516714 10.62992125984252,0 0,-25.404843262516714 -10.62992125984252,0 0,-25.404843262516714 10.62992125984252,0 0,-25.404843262516714 -10.62992125984252,0 0,-25.404843262516714 10.62992125984252,0 0,-25.404843262516714 -10.62992125984252,0 0,-25.404843262516714 10.62992125984252,0 0,-25.404843262516714 -10.62992125984252,0 0,-25.404843262516714 10.62992125984252,0 0,-25.404843262516714 -10.62992125984252,0 0,-25.404843262516714 10.62992125984252,0 0,-25.404843262516714 -10.62992125984252,0 0,-25.404843262516714 10.62992125984252,0 0,-25.404843262516714 -10.62992125984252,0 0,-25.404843262516714 10.62992125984252,0 0,-25.404843262516714 -10.62992125984252,0 0,-25.404843262516714 10.62992125984252,0 0,-25.404843262516714 -10.62992125984252,0 0,-25.404843262516714 10.62992125984252,0 0,-25.404843262516714 -10.62992125984252,0 0,-25.404843262516714 10.62992125984252,0 0,-25.404843262516714 -10.62992125984252,0 0,-25.404843262516714 10.62992125984252,0 0,-25.404843262516714 -10.62992125984252,0 0,-25.404843262516714 10.62992125984252,0 0,-25.404843262516714 -10.62992125984252,0 0,-25.404843262516714 10.62992125984252,0 0,-25.404843262516714 -10.62992125984252,0 0,-25.404843262516714 10.62992125984252,0 0,-25.404843262516714 -10.62992125984252,0 0,-25.404843262516714 10.62992125984252,0 0,-25.404843262516714 -10.62992125984252,0 0,-25.404843262516714 10.62992125984252,0 0,-25.404843262516714 -10.62992125984252,0 0,-25.404843262516714 10.62992125984252,0 0,-25.404843262516714 -10.62992125984252,0 0,-25.404843262516714 10.62992125984252,0 0,-25.404843262516714 -10.62992125984252,0 0,-25.404843262516714 10.62992125984252,0 0,-25.404843262516714 -10.62992125984252,0 0,-25.404843262516714 10.62992125984252,0 0,-25.404843262516714 -10.62992125984252,0 0,-25.404843262516714 10.62992125984252,0 0,-25.404843262516714 -10.62992125984252,0 0,-25.404843262516714 10.62992125984252,0 0,-25.404843262516714 -10.62992125984252,0 0,-25.404843262516714 10.62992125984252,0 0,-25.404843262516714 -10.62992125984252,0 0,-25.404843262516714 10.62992125984252,0 0,-25.404843262516714 -10.62992125984252,0 0,-25.404843262516714 z"
       transform="translate(1792.9133858267717,10.62992125984252)" />
    <path
       style="fill:none;stroke:#ff0000"
       id="font"
       transform="translate(1792.9133858267717,1367.716535433071)"
       d="m 0,10.62992125984252 24.95286680714207,0 0,-10.62992125984252 24.95286680714207,0 0,10.62992125984252 24.95286680714207,0 0,-10.62992125984252 24.95286680714207,0 0,10.62992125984252 24.95286680714207,0 0,-10.62992125984252 24.95286680714207,0 0,10.62992125984252 24.95286680714207,0 0,-10.62992125984252 24.95286680714207,0 0,10.62992125984252 24.95286680714207,0 0,-10.62992125984252 24.95286680714207,0 0,10.62992125984252 24.95286680714207,0 0,-10.62992125984252 24.95286680714207,0 0,10.62992125984252 24.95286680714207,0 0,-10.62992125984252 24.95286680714207,0 0,10.62992125984252 24.95286680714207,0 0,-10.62992125984252 24.95286680714207,0 0,10.62992125984252 24.95286680714207,0 0,-10.62992125984252 24.95286680714207,0 0,10.62992125984252 24.95286680714207,0 0,-10.62992125984252 24.95286680714207,0 0,10.62992125984252 24.95286680714207,0 0,-10.62992125984252 24.95286680714207,0 0,10.62992125984252 24.95286680714207,0 0,-10.62992125984252 24.95286680714207,0 0,10.62992125984252 24.95286680714207,0 0,-10.62992125984252 24.95286680714207,0 0,10.62992125984252 24.95286680714207,0 0,-10.62992125984252 24.95286680714207,0 0,10.62992125984252 24.95286680714207,0 0,-10.62992125984252 24.95286680714207,0 0,10.62992125984252 24.95286680714207,0 0,-10.62992125984252 24.95286680714207,0 0,10.62992125984252 24.95286680714207,0 0,-10.62992125984252 24.95286680714207,0 0,10.62992125984252 24.95286680714207,0 0,-10.62992125984252 24.95286680714207,0 0,10.62992125984252 24.95286680714207,0 0,-10.62992125984252 24.95286680714207,0 0,10.62992125984252 24.95286680714207,0 0,-10.62992125984252 24.95286680714207,0 0,10.62992125984252 24.95286680714207,0 0,-10.62992125984252 24.95286680714207,0 0,10.62992125984252 24.95286680714207,0 0,-10.62992125984252 24.95286680714207,0 0,10.62992125984252 24.95286680714207,0 0,-10.62992125984252 24.95286680714207,0 0,10.62992125984252 24.95286680714207,0 0,-10.62992125984252 24.95286680714207,0 0,10.62992125984252 24.95286680714207,0 0,-10.62992125984252 24.95286680714207,0 0,10.62992125984252 24.95286680714207,0 0,-10.62992125984252 24.95286680714207,0 0,10.62992125984252 24.95286680714207,0 0,-10.62992125984252 24.95286680714207,0 0,10.62992125984252 24.95286680714207,0 0,-10.62992125984252 24.95286680714207,0 0,10.62992125984252 24.95286680714207,0 0,-10.62992125984252 24.95286680714207,0 0,10.62992125984252 24.95286680714207,0 0,-10.62992125984252 24.95286680714207,0 0,10.62992125984252 24.95286680714207,0 0,-10.62992125984252 24.95286680714207,0 0,10.62992125984252 24.95286680714207,0 0,-10.62992125984252 24.95286680714207,0 0,10.62992125984252 24.95286680714207,0 0,-10.62992125984252 24.95286680714207,0 0,10.62992125984252 24.95286680714207,0 0,-10.62992125984252 24.95286680714207,0 0,10.62992125984252 24.95286680714207,0 0,-10.62992125984252 24.95286680714207,0 0,10.62992125984252 24.95286680714207,0 0,25.368024649092778 -10.62992125984252,0 0,25.368024649092778 10.62992125984252,0 0,25.368024649092778 -10.62992125984252,0 0,25.368024649092778 10.62992125984252,0 0,25.368024649092778 -10.62992125984252,0 0,25.368024649092778 10.62992125984252,0 0,25.368024649092778 -10.62992125984252,0 0,25.368024649092778 10.62992125984252,0 0,25.368024649092778 -10.62992125984252,0 0,25.368024649092778 10.62992125984252,0 0,25.368024649092778 -10.62992125984252,0 0,25.368024649092778 10.62992125984252,0 0,25.368024649092778 -10.62992125984252,0 0,25.368024649092778 10.62992125984252,0 0,25.368024649092778 -10.62992125984252,0 0,25.368024649092778 10.62992125984252,0 0,25.368024649092778 -10.62992125984252,0 0,25.368024649092778 10.62992125984252,0 0,25.368024649092778 -10.62992125984252,0 0,25.368024649092778 10.62992125984252,0 0,25.368024649092778 -10.62992125984252,0 0,25.368024649092778 10.62992125984252,0 0,25.368024649092778 -10.62992125984252,0 0,25.368024649092778 10.62992125984252,0 0,25.368024649092778 -10.62992125984252,0 0,25.368024649092778 10.62992125984252,0 0,25.368024649092778 -10.62992125984252,0 0,25.368024649092778 10.62992125984252,0 0,25.368024649092778 -10.62992125984252,0 0,25.368024649092778 10.62992125984252,0 0,25.368024649092778 -10.62992125984252,0 0,25.368024649092778 10.62992125984252,0 0,25.368024649092778 -10.62992125984252,0 0,25.368024649092778 10.62992125984252,0 0,25.368024649092778 -10.62992125984252,0 0,25.368024649092778 10.62992125984252,0 0,25.368024649092778 -10.62992125984252,0 0,25.368024649092778 10.62992125984252,0 0,25.368024649092778 -10.62992125984252,0 0,25.368024649092778 10.62992125984252,0 0,25.368024649092778 -10.62992125984252,0 0,25.368024649092778 10.62992125984252,0 0,25.368024649092778 -10.62992125984252,0 0,25.368024649092778 10.62992125984252,0 0,25.368024649092778 -10.62992125984252,0 0,25.368024649092778 10.62992125984252,0 0,25.368024649092778 -10.62992125984252,0 0,25.368024649092778 10.62992125984252,0 0,25.368024649092778 -10.62992125984252,0 0,25.368024649092778 10.62992125984252,0 0,25.368024649092778 -10.62992125984252,0 0,25.368024649092778 10.62992125984252,0 0,25.368024649092778 -10.62992125984252,0 0,25.368024649092778 10.62992125984252,0 0,25.368024649092778 -10.62992125984252,0 0,25.368024649092778 10.62992125984252,0 0,25.368024649092778 -10.62992125984252,0 0,25.368024649092778 10.62992125984252,0 0,25.368024649092778 -10.62992125984252,0 0,25.368024649092778 10.62992125984252,0 0,25.368024649092778 -10.62992125984252,0 0,25.368024649092778 10.62992125984252,0 0,25.368024649092778 -10.62992125984252,0 0,25.368024649092778 10.62992125984252,0 0,25.368024649092778 -10.62992125984252,0 0,25.368024649092778 10.62992125984252,0 0,25.368024649092778 -10.62992125984252,0 0,25.368024649092778 10.62992125984252,0 0,25.368024649092778 -24.95286680714207,0 0,10.62992125984252 -24.95286680714207,0 0,-10.62992125984252 -24.95286680714207,0 0,10.62992125984252 -24.95286680714207,0 0,-10.62992125984252 -24.95286680714207,0 0,10.62992125984252 -24.95286680714207,0 0,-10.62992125984252 -24.95286680714207,0 0,10.62992125984252 -24.95286680714207,0 0,-10.62992125984252 -24.95286680714207,0 0,10.62992125984252 -24.95286680714207,0 0,-10.62992125984252 -24.95286680714207,0 0,10.62992125984252 -24.95286680714207,0 0,-10.62992125984252 -24.95286680714207,0 0,10.62992125984252 -24.95286680714207,0 0,-10.62992125984252 -24.95286680714207,0 0,10.62992125984252 -24.95286680714207,0 0,-10.62992125984252 -24.95286680714207,0 0,10.62992125984252 -24.95286680714207,0 0,-10.62992125984252 -24.95286680714207,0 0,10.62992125984252 -24.95286680714207,0 0,-10.62992125984252 -24.95286680714207,0 0,10.62992125984252 -24.95286680714207,0 0,-10.62992125984252 -24.95286680714207,0 0,10.62992125984252 -24.95286680714207,0 0,-10.62992125984252 -24.95286680714207,0 0,10.62992125984252 -24.95286680714207,0 0,-10.62992125984252 -24.95286680714207,0 0,10.62992125984252 -24.95286680714207,0 0,-10.62992125984252 -24.95286680714207,0 0,10.62992125984252 -24.95286680714207,0 0,-10.62992125984252 -24.95286680714207,0 0,10.62992125984252 -24.95286680714207,0 0,-10.62992125984252 -24.95286680714207,0 0,10.62992125984252 -24.95286680714207,0 0,-10.62992125984252 -24.95286680714207,0 0,10.62992125984252 -24.95286680714207,0 0,-10.62992125984252 -24.95286680714207,0 0,10.62992125984252 -24.95286680714207,0 0,-10.62992125984252 -24.95286680714207,0 0,10.62992125984252 -24.95286680714207,0 0,-10.62992125984252 -24.95286680714207,0 0,10.62992125984252 -24.95286680714207,0 0,-10.62992125984252 -24.95286680714207,0 0,10.62992125984252 -24.95286680714207,0 0,-10.62992125984252 -24.95286680714207,0 0,10.62992125984252 -24.95286680714207,0 0,-10.62992125984252 -24.95286680714207,0 0,10.62992125984252 -24.95286680714207,0 0,-10.62992125984252 -24.95286680714207,0 0,10.62992125984252 -24.95286680714207,0 0,-10.62992125984252 -24.95286680714207,0 0,10.62992125984252 -24.95286680714207,0 0,-10.62992125984252 -24.95286680714207,0 0,10.62992125984252 -24.95286680714207,0 0,-10.62992125984252 -24.95286680714207,0 0,10.62992125984252 -24.95286680714207,0 0,-10.62992125984252 -24.95286680714207,0 0,10.62992125984252 -24.95286680714207,0 0,-10.62992125984252 -24.95286680714207,0 0,10.62992125984252 -24.95286680714207,0 0,-10.62992125984252 -24.95286680714207,0 0,10.62992125984252 -24.95286680714207,0 0,-10.62992125984252 -24.95286680714207,0 0,10.62992125984252 -24.95286680714207,0 0,-10.62992125984252 -24.95286680714207,0 0,10.62992125984252 -24.95286680714207,0 0,-10.62992125984252 -24.95286680714207,0 0,10.62992125984252 -24.95286680714207,0 0,-10.62992125984252 -24.95286680714207,0 0,10.62992125984252 -24.95286680714207,0 0,-10.62992125984252 -24.95286680714207,0 0,-25.368024649092778 10.62992125984252,0 0,-25.368024649092778 -10.62992125984252,0 0,-25.368024649092778 10.62992125984252,0 0,-25.368024649092778 -10.62992125984252,0 0,-25.368024649092778 10.62992125984252,0 0,-25.368024649092778 -10.62992125984252,0 0,-25.368024649092778 10.62992125984252,0 0,-25.368024649092778 -10.62992125984252,0 0,-25.368024649092778 10.62992125984252,0 0,-25.368024649092778 -10.62992125984252,0 0,-25.368024649092778 10.62992125984252,0 0,-25.368024649092778 -10.62992125984252,0 0,-25.368024649092778 10.62992125984252,0 0,-25.368024649092778 -10.62992125984252,0 0,-25.368024649092778 10.62992125984252,0 0,-25.368024649092778 -10.62992125984252,0 0,-25.368024649092778 10.62992125984252,0 0,-25.368024649092778 -10.62992125984252,0 0,-25.368024649092778 10.62992125984252,0 0,-25.368024649092778 -10.62992125984252,0 0,-25.368024649092778 10.62992125984252,0 0,-25.368024649092778 -10.62992125984252,0 0,-25.368024649092778 10.62992125984252,0 0,-25.368024649092778 -10.62992125984252,0 0,-25.368024649092778 10.62992125984252,0 0,-25.368024649092778 -10.62992125984252,0 0,-25.368024649092778 10.62992125984252,0 0,-25.368024649092778 -10.62992125984252,0 0,-25.368024649092778 10.62992125984252,0 0,-25.368024649092778 -10.62992125984252,0 0,-25.368024649092778 10.62992125984252,0 0,-25.368024649092778 -10.62992125984252,0 0,-25.368024649092778 10.62992125984252,0 0,-25.368024649092778 -10.62992125984252,0 0,-25.368024649092778 10.62992125984252,0 0,-25.368024649092778 -10.62992125984252,0 0,-25.368024649092778 10.62992125984252,0 0,-25.368024649092778 -10.62992125984252,0 0,-25.368024649092778 10.62992125984252,0 0,-25.368024649092778 -10.62992125984252,0 0,-25.368024649092778 10.62992125984252,0 0,-25.368024649092778 -10.62992125984252,0 0,-25.368024649092778 10.62992125984252,0 0,-25.368024649092778 -10.62992125984252,0 0,-25.368024649092778 10.62992125984252,0 0,-25.368024649092778 -10.62992125984252,0 0,-25.368024649092778 10.62992125984252,0 0,-25.368024649092778 -10.62992125984252,0 0,-25.368024649092778 10.62992125984252,0 0,-25.368024649092778 -10.62992125984252,0 0,-25.368024649092778 10.62992125984252,0 0,-25.368024649092778 -10.62992125984252,0 0,-25.368024649092778 10.62992125984252,0 0,-25.368024649092778 -10.62992125984252,0 0,-25.368024649092778 10.62992125984252,0 0,-25.368024649092778 -10.62992125984252,0 0,-25.368024649092778 10.62992125984252,0 0,-25.368024649092778 -10.62992125984252,0 0,-25.368024649092778 10.62992125984252,0 0,-25.368024649092778 -10.62992125984252,0 0,-25.368024649092778 10.62992125984252,0 0,-25.368024649092778 -10.62992125984252,0 0,-25.368024649092778 10.62992125984252,0 0,-25.368024649092778 -10.62992125984252,0 0,-25.368024649092778 10.62992125984252,0 0,-25.368024649092778 -10.62992125984252,0 0,-25.368024649092778 10.62992125984252,0 0,-25.368024649092778 -10.62992125984252,0 0,-25.368024649092778 z" />
    <path
       style="fill:none;stroke:#ff0000"
       d="M 35.582031 1367.7168 L 35.582031 1378.3457 L 10.630859 1378.3457 L 10.630859 1403.7148 L 21.259766 1403.7148 L 21.259766 1429.082 L 10.630859 1429.082 L 10.630859 1454.4512 L 21.259766 1454.4512 L 21.259766 1479.8184 L 10.630859 1479.8184 L 10.630859 1505.1875 L 21.259766 1505.1875 L 21.259766 1529.2129 L 648.41992 1529.2129 L 648.41992 2977.873 L 21.259766 2977.873 L 21.259766 3001.9004 L 10.630859 3001.9004 L 10.630859 3027.2676 L 21.259766 3027.2676 L 21.259766 3052.6367 L 10.630859 3052.6367 L 10.630859 3078.0039 L 21.259766 3078.0039 L 21.259766 3103.373 L 10.630859 3103.373 L 10.630859 3128.7402 L 35.582031 3128.7402 L 35.582031 3139.3691 L 60.535156 3139.3691 L 60.535156 3128.7402 L 85.488281 3128.7402 L 85.488281 3139.3691 L 110.44141 3139.3691 L 110.44141 3128.7402 L 135.39453 3128.7402 L 135.39453 3139.3691 L 160.34766 3139.3691 L 160.34766 3128.7402 L 185.30078 3128.7402 L 185.30078 3139.3691 L 210.25195 3139.3691 L 210.25195 3128.7402 L 235.20508 3128.7402 L 235.20508 3139.3691 L 260.1582 3139.3691 L 260.1582 3128.7402 L 285.11133 3128.7402 L 285.11133 3139.3691 L 310.06445 3139.3691 L 310.06445 3128.7402 L 335.01758 3128.7402 L 335.01758 3139.3691 L 359.9707 3139.3691 L 359.9707 3128.7402 L 384.92383 3128.7402 L 384.92383 3139.3691 L 409.875 3139.3691 L 409.875 3128.7402 L 434.82812 3128.7402 L 434.82812 3139.3691 L 459.78125 3139.3691 L 459.78125 3128.7402 L 484.73438 3128.7402 L 484.73438 3139.3691 L 509.6875 3139.3691 L 509.6875 3128.7402 L 534.64062 3128.7402 L 534.64062 3139.3691 L 559.59375 3139.3691 L 559.59375 3128.7402 L 584.54492 3128.7402 L 584.54492 3139.3691 L 609.49805 3139.3691 L 609.49805 3128.7402 L 634.45117 3128.7402 L 634.45117 3139.3691 L 659.4043 3139.3691 L 659.4043 3128.7402 L 684.35742 3128.7402 L 684.35742 3139.3691 L 709.31055 3139.3691 L 709.31055 3128.7402 L 734.26367 3128.7402 L 734.26367 3139.3691 L 759.2168 3139.3691 L 759.2168 3128.7402 L 784.16797 3128.7402 L 784.16797 3139.3691 L 809.12109 3139.3691 L 809.12109 3128.7402 L 834.07422 3128.7402 L 834.07422 3139.3691 L 859.02734 3139.3691 L 859.02734 3128.7402 L 883.98047 3128.7402 L 883.98047 3139.3691 L 908.93359 3139.3691 L 908.93359 3128.7402 L 933.88672 3128.7402 L 933.88672 3139.3691 L 958.83789 3139.3691 L 958.83789 3128.7402 L 983.79102 3128.7402 L 983.79102 3139.3691 L 1008.7441 3139.3691 L 1008.7441 3128.7402 L 1033.6973 3128.7402 L 1033.6973 3139.3691 L 1058.6504 3139.3691 L 1058.6504 3128.7402 L 1083.6035 3128.7402 L 1083.6035 3139.3691 L 1108.5566 3139.3691 L 1108.5566 3128.7402 L 1133.5098 3128.7402 L 1133.5098 3139.3691 L 1158.4609 3139.3691 L 1158.4609 3128.7402 L 1183.4141 3128.7402 L 1183.4141 3139.3691 L 1208.3672 3139.3691 L 1208.3672 3128.7402 L 1233.3203 3128.7402 L 1233.3203 3139.3691 L 1258.2734 3139.3691 L 1258.2734 3128.7402 L 1283.2266 3128.7402 L 1283.2266 3139.3691 L 1308.1797 3139.3691 L 1308.1797 3128.7402 L 1333.1328 3128.7402 L 1333.1328 3139.3691 L 1358.084 3139.3691 L 1358.084 3128.7402 L 1383.0371 3128.7402 L 1383.0371 3139.3691 L 1407.9902 3139.3691 L 1407.9902 3128.7402 L 1432.9434 3128.7402 L 1432.9434 3139.3691 L 1457.8965 3139.3691 L 1457.8965 3128.7402 L 1482.8496 3128.7402 L 1482.8496 3139.3691 L 1507.8027 3139.3691 L 1507.8027 3128.7402 L 1532.7539 3128.7402 L 1532.7539 3139.3691 L 1557.707 3139.3691 L 1557.707 3128.7402 L 1582.6602 3128.7402 L 1582.6602 3139.3691 L 1607.6133 3139.3691 L 1607.6133 3128.7402 L 1632.5664 3128.7402 L 1632.5664 3139.3691 L 1657.5195 3139.3691 L 1657.5195 3128.7402 L 1682.4727 3128.7402 L 1682.4727 3139.3691 L 1707.4258 3139.3691 L 1707.4258 3128.7402 L 1732.377 3128.7402 L 1732.377 3139.3691 L 1757.3301 3139.3691 L 1757.3301 3128.7402 L 1782.2832 3128.7402 L 1782.2832 3103.373 L 1771.6543 3103.373 L 1771.6543 3078.0039 L 1782.2832 3078.0039 L 1782.2832 3052.6367 L 1771.6543 3052.6367 L 1771.6543 3027.2676 L 1782.2832 3027.2676 L 1782.2832 3001.9004 L 1771.6543 3001.9004 L 1771.6543 2976.5312 L 1782.2832 2976.5312 L 1782.2832 2951.1641 L 1771.6543 2951.1641 L 1771.6543 2925.7969 L 1782.2832 2925.7969 L 1782.2832 2900.4277 L 1771.6543 2900.4277 L 1771.6543 2875.0605 L 1782.2832 2875.0605 L 1782.2832 2849.6914 L 1771.6543 2849.6914 L 1771.6543 2824.3242 L 1782.2832 2824.3242 L 1782.2832 2798.9551 L 1771.6543 2798.9551 L 1771.6543 2773.5879 L 1782.2832 2773.5879 L 1782.2832 2748.2207 L 1771.6543 2748.2207 L 1771.6543 2722.8516 L 1782.2832 2722.8516 L 1782.2832 2697.4844 L 1771.6543 2697.4844 L 1771.6543 2672.1152 L 1782.2832 2672.1152 L 1782.2832 2646.748 L 1771.6543 2646.748 L 1771.6543 2621.3789 L 1782.2832 2621.3789 L 1782.2832 2596.0117 L 1771.6543 2596.0117 L 1771.6543 2570.6445 L 1782.2832 2570.6445 L 1782.2832 2545.2754 L 1771.6543 2545.2754 L 1771.6543 2519.9082 L 1782.2832 2519.9082 L 1782.2832 2494.5391 L 1771.6543 2494.5391 L 1771.6543 2469.1719 L 1782.2832 2469.1719 L 1782.2832 2443.8027 L 1771.6543 2443.8027 L 1771.6543 2418.4355 L 1782.2832 2418.4355 L 1782.2832 2393.0684 L 1771.6543 2393.0684 L 1771.6543 2367.6992 L 1782.2832 2367.6992 L 1782.2832 2342.332 L 1771.6543 2342.332 L 1771.6543 2316.9629 L 1782.2832 2316.9629 L 1782.2832 2291.5957 L 1771.6543 2291.5957 L 1771.6543 2266.2266 L 1782.2832 2266.2266 L 1782.2832 2240.8594 L 1771.6543 2240.8594 L 1771.6543 2215.4922 L 1782.2832 2215.4922 L 1782.2832 2190.123 L 1771.6543 2190.123 L 1771.6543 2164.7559 L 1782.2832 2164.7559 L 1782.2832 2139.3867 L 1771.6543 2139.3867 L 1771.6543 2114.0195 L 1782.2832 2114.0195 L 1782.2832 2088.6504 L 1771.6543 2088.6504 L 1771.6543 2063.2832 L 1782.2832 2063.2832 L 1782.2832 2037.916 L 1771.6543 2037.916 L 1771.6543 2012.5469 L 1782.2832 2012.5469 L 1782.2832 1987.1797 L 1771.6543 1987.1797 L 1771.6543 1961.8105 L 1782.2832 1961.8105 L 1782.2832 1936.4434 L 1771.6543 1936.4434 L 1771.6543 1911.0742 L 1782.2832 1911.0742 L 1782.2832 1885.707 L 1771.6543 1885.707 L 1771.6543 1860.3398 L 1782.2832 1860.3398 L 1782.2832 1834.9707 L 1771.6543 1834.9707 L 1771.6543 1809.6035 L 1782.2832 1809.6035 L 1782.2832 1784.2344 L 1771.6543 1784.2344 L 1771.6543 1758.8672 L 1782.2832 1758.8672 L 1782.2832 1733.498 L 1771.6543 1733.498 L 1771.6543 1708.1309 L 1782.2832 1708.1309 L 1782.2832 1682.7637 L 1771.6543 1682.7637 L 1771.6543 1657.3945 L 1782.2832 1657.3945 L 1782.2832 1632.0273 L 1771.6543 1632.0273 L 1771.6543 1606.6582 L 1782.2832 1606.6582 L 1782.2832 1581.291 L 1771.6543 1581.291 L 1771.6543 1555.9219 L 1782.2832 1555.9219 L 1782.2832 1530.5547 L 1771.6543 1530.5547 L 1771.6543 1505.1875 L 1782.2832 1505.1875 L 1782.2832 1479.8184 L 1771.6543 1479.8184 L 1771.6543 1454.4512 L 1782.2832 1454.4512 L 1782.2832 1429.082 L 1771.6543 1429.082 L 1771.6543 1403.7148 L 1782.2832 1403.7148 L 1782.2832 1378.3457 L 1757.3301 1378.3457 L 1757.3301 1367.7168 L 1732.377 1367.7168 L 1732.377 1378.3457 L 1707.4258 1378.3457 L 1707.4258 1367.7168 L 1682.4727 1367.7168 L 1682.4727 1378.3457 L 1657.5195 1378.3457 L 1657.5195 1367.7168 L 1632.5664 1367.7168 L 1632.5664 1378.3457 L 1607.6133 1378.3457 L 1607.6133 1367.7168 L 1582.6602 1367.7168 L 1582.6602 1378.3457 L 1557.707 1378.3457 L 1557.707 1367.7168 L 1532.7539 1367.7168 L 1532.7539 1378.3457 L 1507.8027 1378.3457 L 1507.8027 1367.7168 L 1482.8496 1367.7168 L 1482.8496 1378.3457 L 1457.8965 1378.3457 L 1457.8965 1367.7168 L 1432.9434 1367.7168 L 1432.9434 1378.3457 L 1407.9902 1378.3457 L 1407.9902 1367.7168 L 1383.0371 1367.7168 L 1383.0371 1378.3457 L 1358.084 1378.3457 L 1358.084 1367.7168 L 1333.1328 1367.7168 L 1333.1328 1378.3457 L 1308.1797 1378.3457 L 1308.1797 1367.7168 L 1283.2266 1367.7168 L 1283.2266 1378.3457 L 1258.2734 1378.3457 L 1258.2734 1367.7168 L 1233.3203 1367.7168 L 1233.3203 1378.3457 L 1208.3672 1378.3457 L 1208.3672 1367.7168 L 1183.4141 1367.7168 L 1183.4141 1378.3457 L 1158.4609 1378.3457 L 1158.4609 1367.7168 L 1133.5098 1367.7168 L 1133.5098 1378.3457 L 1108.5566 1378.3457 L 1108.5566 1367.7168 L 1083.6035 1367.7168 L 1083.6035 1378.3457 L 1058.6504 1378.3457 L 1058.6504 1367.7168 L 1033.6973 1367.7168 L 1033.6973 1378.3457 L 1008.7441 1378.3457 L 1008.7441 1367.7168 L 983.79102 1367.7168 L 983.79102 1378.3457 L 958.83789 1378.3457 L 958.83789 1367.7168 L 933.88672 1367.7168 L 933.88672 1378.3457 L 908.93359 1378.3457 L 908.93359 1367.7168 L 883.98047 1367.7168 L 883.98047 1378.3457 L 859.02734 1378.3457 L 859.02734 1367.7168 L 834.07422 1367.7168 L 834.07422 1378.3457 L 809.12109 1378.3457 L 809.12109 1367.7168 L 784.16797 1367.7168 L 784.16797 1378.3457 L 759.2168 1378.3457 L 759.2168 1367.7168 L 734.26367 1367.7168 L 734.26367 1378.3457 L 709.31055 1378.3457 L 709.31055 1367.7168 L 684.35742 1367.7168 L 684.35742 1378.3457 L 659.4043 1378.3457 L 659.4043 1367.7168 L 634.45117 1367.7168 L 634.45117 1378.3457 L 609.49805 1378.3457 L 609.49805 1367.7168 L 584.54492 1367.7168 L 584.54492 1378.3457 L 559.59375 1378.3457 L 559.59375 1367.7168 L 534.64062 1367.7168 L 534.64062 1378.3457 L 509.6875 1378.3457 L 509.6875 1367.7168 L 484.73438 1367.7168 L 484.73438 1378.3457 L 459.78125 1378.3457 L 459.78125 1367.7168 L 434.82812 1367.7168 L 434.82812 1378.3457 L 409.875 1378.3457 L 409.875 1367.7168 L 384.92383 1367.7168 L 384.92383 1378.3457 L 359.9707 1378.3457 L 359.9707 1367.7168 L 335.01758 1367.7168 L 335.01758 1378.3457 L 310.06445 1378.3457 L 310.06445 1367.7168 L 285.11133 1367.7168 L 285.11133 1378.3457 L 260.1582 1378.3457 L 260.1582 1367.7168 L 235.20508 1367.7168 L 235.20508 1378.3457 L 210.25195 1378.3457 L 210.25195 1367.7168 L 185.30078 1367.7168 L 185.30078 1378.3457 L 160.34766 1378.3457 L 160.34766 1367.7168 L 135.39453 1367.7168 L 135.39453 1378.3457 L 110.44141 1378.3457 L 110.44141 1367.7168 L 85.488281 1367.7168 L 85.488281 1378.3457 L 60.535156 1378.3457 L 60.535156 1367.7168 L 35.582031 1367.7168 z M 10.630859 1530.5547 L 10.630859 1555.9219 L 10.634766 1555.9219 L 10.634766 1530.5547 L 10.630859 1530.5547 z M 10.630859 1581.291 L 10.630859 1606.6582 L 10.634766 1606.6582 L 10.634766 1581.291 L 10.630859 1581.291 z M 10.630859 1632.0273 L 10.630859 1657.3945 L 10.634766 1657.3945 L 10.634766 1632.0273 L 10.630859 1632.0273 z M 10.630859 1682.7637 L 10.630859 1708.1309 L 10.634766 1708.1309 L 10.634766 1682.7637 L 10.630859 1682.7637 z M 10.630859 1733.498 L 10.630859 1758.8672 L 10.634766 1758.8672 L 10.634766 1733.498 L 10.630859 1733.498 z M 10.630859 1784.2344 L 10.630859 1809.6035 L 10.634766 1809.6035 L 10.634766 1784.2344 L 10.630859 1784.2344 z M 10.630859 1834.9707 L 10.630859 1860.3398 L 10.634766 1860.3398 L 10.634766 1834.9707 L 10.630859 1834.9707 z M 10.630859 1885.707 L 10.630859 1911.0742 L 10.634766 1911.0742 L 10.634766 1885.707 L 10.630859 1885.707 z M 10.630859 1936.4434 L 10.630859 1961.8105 L 10.634766 1961.8105 L 10.634766 1936.4434 L 10.630859 1936.4434 z M 10.630859 1987.1797 L 10.630859 2012.5469 L 10.634766 2012.5469 L 10.634766 1987.1797 L 10.630859 1987.1797 z M 10.630859 2037.916 L 10.630859 2063.2832 L 10.634766 2063.2832 L 10.634766 2037.916 L 10.630859 2037.916 z M 10.630859 2088.6504 L 10.630859 2114.0195 L 10.634766 2114.0195 L 10.634766 2088.6504 L 10.630859 2088.6504 z M 10.630859 2139.3867 L 10.630859 2164.7559 L 10.634766 2164.7559 L 10.634766 2139.3867 L 10.630859 2139.3867 z M 10.630859 2190.123 L 10.630859 2215.4922 L 10.634766 2215.4922 L 10.634766 2190.123 L 10.630859 2190.123 z M 10.630859 2240.8594 L 10.630859 2266.2266 L 10.634766 2266.2266 L 10.634766 2240.8594 L 10.630859 2240.8594 z M 10.630859 2291.5957 L 10.630859 2316.9629 L 10.634766 2316.9629 L 10.634766 2291.5957 L 10.630859 2291.5957 z M 10.630859 2342.332 L 10.630859 2367.6992 L 10.634766 2367.6992 L 10.634766 2342.332 L 10.630859 2342.332 z M 10.630859 2393.0684 L 10.630859 2418.4355 L 10.634766 2418.4355 L 10.634766 2393.0684 L 10.630859 2393.0684 z M 10.630859 2443.8027 L 10.630859 2469.1719 L 10.634766 2469.1719 L 10.634766 2443.8027 L 10.630859 2443.8027 z M 10.630859 2494.5391 L 10.630859 2519.9082 L 10.634766 2519.9082 L 10.634766 2494.5391 L 10.630859 2494.5391 z M 10.630859 2545.2754 L 10.630859 2570.6445 L 10.634766 2570.6445 L 10.634766 2545.2754 L 10.630859 2545.2754 z M 10.630859 2596.0117 L 10.630859 2621.3789 L 10.634766 2621.3789 L 10.634766 2596.0117 L 10.630859 2596.0117 z M 10.630859 2646.748 L 10.630859 2672.1152 L 10.634766 2672.1152 L 10.634766 2646.748 L 10.630859 2646.748 z M 10.630859 2697.4844 L 10.630859 2722.8516 L 10.634766 2722.8516 L 10.634766 2697.4844 L 10.630859 2697.4844 z M 10.630859 2748.2207 L 10.630859 2773.5879 L 10.634766 2773.5879 L 10.634766 2748.2207 L 10.630859 2748.2207 z M 10.630859 2798.9551 L 10.630859 2824.3242 L 10.634766 2824.3242 L 10.634766 2798.9551 L 10.630859 2798.9551 z M 10.630859 2849.6914 L 10.630859 2875.0605 L 10.634766 2875.0605 L 10.634766 2849.6914 L 10.630859 2849.6914 z M 10.630859 2900.4277 L 10.630859 2925.7969 L 10.634766 2925.7969 L 10.634766 2900.4277 L 10.630859 2900.4277 z M 10.630859 2951.1641 L 10.630859 2976.5312 L 10.634766 2976.5312 L 10.634766 2951.1641 L 10.630859 2951.1641 z "
       id="back" />
    <path
       style="fill:none;stroke:#ff0000"
       id="left_side"
       transform="translate(1367.716535433071,3150)"
       d="m 10.62992125984252,10.62992125984252 14.774922002674197,0 0,-10.62992125984252 25.404843262516714,0 0,10.62992125984252 25.404843262516714,0 0,-10.62992125984252 25.404843262516714,0 0,10.62992125984252 25.404843262516714,0 0,-10.62992125984252 25.404843262516714,0 0,10.62992125984252 25.404843262516714,0 0,-10.62992125984252 25.404843262516714,0 0,10.62992125984252 25.404843262516714,0 0,-10.62992125984252 25.404843262516714,0 0,10.62992125984252 25.404843262516714,0 0,-10.62992125984252 25.404843262516714,0 0,10.62992125984252 25.404843262516714,0 0,-10.62992125984252 25.404843262516714,0 0,10.62992125984252 25.404843262516714,0 0,-10.62992125984252 25.404843262516714,0 0,10.62992125984252 25.404843262516714,0 0,-10.62992125984252 25.404843262516714,0 0,10.62992125984252 25.404843262516714,0 0,-10.62992125984252 25.404843262516714,0 0,10.62992125984252 25.404843262516714,0 0,-10.62992125984252 25.404843262516714,0 0,10.62992125984252 25.404843262516714,0 0,-10.62992125984252 25.404843262516714,0 0,10.62992125984252 25.404843262516714,0 0,-10.62992125984252 25.404843262516714,0 0,10.62992125984252 25.404843262516714,0 0,-10.62992125984252 25.404843262516714,0 0,10.62992125984252 25.404843262516714,0 0,-10.62992125984252 25.404843262516714,0 0,10.62992125984252 25.404843262516714,0 0,-10.62992125984252 25.404843262516714,0 0,10.62992125984252 25.404843262516714,0 0,-10.62992125984252 25.404843262516714,0 0,10.62992125984252 25.404843262516714,0 0,-10.62992125984252 25.404843262516714,0 0,10.62992125984252 25.404843262516714,0 0,-10.62992125984252 25.404843262516714,0 0,10.62992125984252 25.404843262516714,0 0,-10.62992125984252 25.404843262516714,0 0,10.62992125984252 25.404843262516714,0 0,-10.62992125984252 25.404843262516714,0 0,10.62992125984252 25.404843262516714,0 0,-10.62992125984252 25.404843262516714,0 0,10.62992125984252 25.404843262516714,0 0,-10.62992125984252 25.404843262516714,0 0,10.62992125984252 25.404843262516714,0 0,-10.62992125984252 25.404843262516714,0 0,10.62992125984252 25.404843262516714,0 0,-10.62992125984252 25.404843262516714,0 0,10.62992125984252 25.404843262516714,0 0,-10.62992125984252 25.404843262516714,0 0,10.62992125984252 14.774922002674197,0 0,25.368024649092778 10.62992125984252,0 0,25.368024649092778 -10.62992125984252,0 0,25.368024649092778 10.62992125984252,0 0,25.368024649092778 -10.62992125984252,0 0,25.368024649092778 10.62992125984252,0 0,25.368024649092778 -10.62992125984252,0 0,25.368024649092778 10.62992125984252,0 0,25.368024649092778 -10.62992125984252,0 0,25.368024649092778 10.62992125984252,0 0,25.368024649092778 -10.62992125984252,0 0,25.368024649092778 10.62992125984252,0 0,25.368024649092778 -10.62992125984252,0 0,25.368024649092778 10.62992125984252,0 0,25.368024649092778 -10.62992125984252,0 0,25.368024649092778 10.62992125984252,0 0,25.368024649092778 -10.62992125984252,0 0,25.368024649092778 10.62992125984252,0 0,25.368024649092778 -10.62992125984252,0 0,25.368024649092778 10.62992125984252,0 0,25.368024649092778 -10.62992125984252,0 0,25.368024649092778 10.62992125984252,0 0,25.368024649092778 -10.62992125984252,0 0,25.368024649092778 10.62992125984252,0 0,25.368024649092778 -10.62992125984252,0 0,25.368024649092778 10.62992125984252,0 0,25.368024649092778 -10.62992125984252,0 0,25.368024649092778 10.62992125984252,0 0,25.368024649092778 -10.62992125984252,0 0,25.368024649092778 10.62992125984252,0 0,25.368024649092778 -10.62992125984252,0 0,25.368024649092778 10.62992125984252,0 0,25.368024649092778 -10.62992125984252,0 0,25.368024649092778 10.62992125984252,0 0,25.368024649092778 -10.62992125984252,0 0,25.368024649092778 10.62992125984252,0 0,25.368024649092778 -10.62992125984252,0 0,25.368024649092778 10.62992125984252,0 0,25.368024649092778 -10.62992125984252,0 0,25.368024649092778 10.62992125984252,0 0,25.368024649092778 -10.62992125984252,0 0,25.368024649092778 10.62992125984252,0 0,25.368024649092778 -10.62992125984252,0 0,25.368024649092778 10.62992125984252,0 0,25.368024649092778 -10.62992125984252,0 0,25.368024649092778 10.62992125984252,0 0,25.368024649092778 -10.62992125984252,0 0,25.368024649092778 10.62992125984252,0 0,25.368024649092778 -10.62992125984252,0 0,25.368024649092778 10.62992125984252,0 0,25.368024649092778 -10.62992125984252,0 0,25.368024649092778 10.62992125984252,0 0,25.368024649092778 -10.62992125984252,0 0,25.368024649092778 10.62992125984252,0 0,25.368024649092778 -10.62992125984252,0 0,25.368024649092778 10.62992125984252,0 0,25.368024649092778 -10.62992125984252,0 0,25.368024649092778 10.62992125984252,0 0,25.368024649092778 -10.62992125984252,0 0,25.368024649092778 10.62992125984252,0 0,25.368024649092778 -10.62992125984252,0 0,25.368024649092778 10.62992125984252,0 0,25.368024649092778 -10.62992125984252,0 0,25.368024649092778 10.62992125984252,0 0,25.368024649092778 -10.62992125984252,0 0,25.368024649092778 10.62992125984252,0 0,25.368024649092778 -10.62992125984252,0 0,25.368024649092778 10.62992125984252,0 0,25.368024649092778 -10.62992125984252,0 0,25.368024649092778 -14.774922002674197,0 0,10.62992125984252 -25.404843262516714,0 0,-10.62992125984252 -25.404843262516714,0 0,10.62992125984252 -25.404843262516714,0 0,-10.62992125984252 -25.404843262516714,0 0,10.62992125984252 -25.404843262516714,0 0,-10.62992125984252 -25.404843262516714,0 0,10.62992125984252 -25.404843262516714,0 0,-10.62992125984252 -25.404843262516714,0 0,10.62992125984252 -25.404843262516714,0 0,-10.62992125984252 -25.404843262516714,0 0,10.62992125984252 -25.404843262516714,0 0,-10.62992125984252 -25.404843262516714,0 0,10.62992125984252 -25.404843262516714,0 0,-10.62992125984252 -25.404843262516714,0 0,10.62992125984252 -25.404843262516714,0 0,-10.62992125984252 -25.404843262516714,0 0,10.62992125984252 -25.404843262516714,0 0,-10.62992125984252 -25.404843262516714,0 0,10.62992125984252 -25.404843262516714,0 0,-10.62992125984252 -25.404843262516714,0 0,10.62992125984252 -25.404843262516714,0 0,-10.62992125984252 -25.404843262516714,0 0,10.62992125984252 -25.404843262516714,0 0,-10.62992125984252 -25.404843262516714,0 0,10.62992125984252 -25.404843262516714,0 0,-10.62992125984252 -25.404843262516714,0 0,10.62992125984252 -25.404843262516714,0 0,-10.62992125984252 -25.404843262516714,0 0,10.62992125984252 -25.404843262516714,0 0,-10.62992125984252 -25.404843262516714,0 0,10.62992125984252 -25.404843262516714,0 0,-10.62992125984252 -25.404843262516714,0 0,10.62992125984252 -25.404843262516714,0 0,-10.62992125984252 -25.404843262516714,0 0,10.62992125984252 -25.404843262516714,0 0,-10.62992125984252 -25.404843262516714,0 0,10.62992125984252 -25.404843262516714,0 0,-10.62992125984252 -25.404843262516714,0 0,10.62992125984252 -25.404843262516714,0 0,-10.62992125984252 -25.404843262516714,0 0,10.62992125984252 -25.404843262516714,0 0,-10.62992125984252 -25.404843262516714,0 0,10.62992125984252 -25.404843262516714,0 0,-10.62992125984252 -25.404843262516714,0 0,10.62992125984252 -25.404843262516714,0 0,-10.62992125984252 -25.404843262516714,0 0,10.62992125984252 -25.404843262516714,0 0,-10.62992125984252 -25.404843262516714,0 0,10.62992125984252 -25.404843262516714,0 0,-10.62992125984252 -25.404843262516714,0 0,10.62992125984252 -25.404843262516714,0 0,-10.62992125984252 -14.774922002674197,0 0,-25.368024649092778 -10.62992125984252,0 0,-25.368024649092778 10.62992125984252,0 0,-25.368024649092778 -10.62992125984252,0 0,-25.368024649092778 10.62992125984252,0 0,-25.368024649092778 -10.62992125984252,0 0,-25.368024649092778 10.62992125984252,0 0,-25.368024649092778 -10.62992125984252,0 0,-25.368024649092778 10.62992125984252,0 0,-25.368024649092778 -10.62992125984252,0 0,-25.368024649092778 10.62992125984252,0 0,-25.368024649092778 -10.62992125984252,0 0,-25.368024649092778 10.62992125984252,0 0,-25.368024649092778 -10.62992125984252,0 0,-25.368024649092778 10.62992125984252,0 0,-25.368024649092778 -10.62992125984252,0 0,-25.368024649092778 10.62992125984252,0 0,-25.368024649092778 -10.62992125984252,0 0,-25.368024649092778 10.62992125984252,0 0,-25.368024649092778 -10.62992125984252,0 0,-25.368024649092778 10.62992125984252,0 0,-25.368024649092778 -10.62992125984252,0 0,-25.368024649092778 10.62992125984252,0 0,-25.368024649092778 -10.62992125984252,0 0,-25.368024649092778 10.62992125984252,0 0,-25.368024649092778 -10.62992125984252,0 0,-25.368024649092778 10.62992125984252,0 0,-25.368024649092778 -10.62992125984252,0 0,-25.368024649092778 10.62992125984252,0 0,-25.368024649092778 -10.62992125984252,0 0,-25.368024649092778 10.62992125984252,0 0,-25.368024649092778 -10.62992125984252,0 0,-25.368024649092778 10.62992125984252,0 0,-25.368024649092778 -10.62992125984252,0 0,-25.368024649092778 10.62992125984252,0 0,-25.368024649092778 -10.62992125984252,0 0,-25.368024649092778 10.62992125984252,0 0,-25.368024649092778 -10.62992125984252,0 0,-25.368024649092778 10.62992125984252,0 0,-25.368024649092778 -10.62992125984252,0 0,-25.368024649092778 10.62992125984252,0 0,-25.368024649092778 -10.62992125984252,0 0,-25.368024649092778 10.62992125984252,0 0,-25.368024649092778 -10.62992125984252,0 0,-25.368024649092778 10.62992125984252,0 0,-25.368024649092778 -10.62992125984252,0 0,-25.368024649092778 10.62992125984252,0 0,-25.368024649092778 -10.62992125984252,0 0,-25.368024649092778 10.62992125984252,0 0,-25.368024649092778 -10.62992125984252,0 0,-25.368024649092778 10.62992125984252,0 0,-25.368024649092778 -10.62992125984252,0 0,-25.368024649092778 10.62992125984252,0 0,-25.368024649092778 -10.62992125984252,0 0,-25.368024649092778 10.62992125984252,0 0,-25.368024649092778 -10.62992125984252,0 0,-25.368024649092778 10.62992125984252,0 0,-25.368024649092778 -10.62992125984252,0 0,-25.368024649092778 10.62992125984252,0 0,-25.368024649092778 -10.62992125984252,0 0,-25.368024649092778 10.62992125984252,0 0,-25.368024649092778 -10.62992125984252,0 0,-25.368024649092778 10.62992125984252,0 0,-25.368024649092778 -10.62992125984252,0 0,-25.368024649092778 10.62992125984252,0 0,-25.368024649092778 -10.62992125984252,0 0,-25.368024649092778 10.62992125984252,0 0,-25.368024649092778 -10.62992125984252,0 0,-25.368024649092778 10.62992125984252,0 0,-25.368024649092778 z" />
    <path
       style="fill:none;stroke:#ff0000"
       id="right_side"
       transform="translate(10.62992125984252,3150)"
       d="m 10.62992125984252,10.62992125984252 14.774922002674197,0 0,-10.62992125984252 25.404843262516714,0 0,10.62992125984252 25.404843262516714,0 0,-10.62992125984252 25.404843262516714,0 0,10.62992125984252 25.404843262516714,0 0,-10.62992125984252 25.404843262516714,0 0,10.62992125984252 25.404843262516714,0 0,-10.62992125984252 25.404843262516714,0 0,10.62992125984252 25.404843262516714,0 0,-10.62992125984252 25.404843262516714,0 0,10.62992125984252 25.404843262516714,0 0,-10.62992125984252 25.404843262516714,0 0,10.62992125984252 25.404843262516714,0 0,-10.62992125984252 25.404843262516714,0 0,10.62992125984252 25.404843262516714,0 0,-10.62992125984252 25.404843262516714,0 0,10.62992125984252 25.404843262516714,0 0,-10.62992125984252 25.404843262516714,0 0,10.62992125984252 25.404843262516714,0 0,-10.62992125984252 25.404843262516714,0 0,10.62992125984252 25.404843262516714,0 0,-10.62992125984252 25.404843262516714,0 0,10.62992125984252 25.404843262516714,0 0,-10.62992125984252 25.404843262516714,0 0,10.62992125984252 25.404843262516714,0 0,-10.62992125984252 25.404843262516714,0 0,10.62992125984252 25.404843262516714,0 0,-10.62992125984252 25.404843262516714,0 0,10.62992125984252 25.404843262516714,0 0,-10.62992125984252 25.404843262516714,0 0,10.62992125984252 25.404843262516714,0 0,-10.62992125984252 25.404843262516714,0 0,10.62992125984252 25.404843262516714,0 0,-10.62992125984252 25.404843262516714,0 0,10.62992125984252 25.404843262516714,0 0,-10.62992125984252 25.404843262516714,0 0,10.62992125984252 25.404843262516714,0 0,-10.62992125984252 25.404843262516714,0 0,10.62992125984252 25.404843262516714,0 0,-10.62992125984252 25.404843262516714,0 0,10.62992125984252 25.404843262516714,0 0,-10.62992125984252 25.404843262516714,0 0,10.62992125984252 25.404843262516714,0 0,-10.62992125984252 25.404843262516714,0 0,10.62992125984252 25.404843262516714,0 0,-10.62992125984252 25.404843262516714,0 0,10.62992125984252 25.404843262516714,0 0,-10.62992125984252 25.404843262516714,0 0,10.62992125984252 25.404843262516714,0 0,-10.62992125984252 25.404843262516714,0 0,10.62992125984252 25.404843262516714,0 0,-10.62992125984252 25.404843262516714,0 0,10.62992125984252 14.774922002674197,0 0,25.368024649092778 10.62992125984252,0 0,25.368024649092778 -10.62992125984252,0 0,25.368024649092778 10.62992125984252,0 0,25.368024649092778 -10.62992125984252,0 0,25.368024649092778 10.62992125984252,0 0,25.368024649092778 -10.62992125984252,0 0,25.368024649092778 10.62992125984252,0 0,25.368024649092778 -10.62992125984252,0 0,25.368024649092778 10.62992125984252,0 0,25.368024649092778 -10.62992125984252,0 0,25.368024649092778 10.62992125984252,0 0,25.368024649092778 -10.62992125984252,0 0,25.368024649092778 10.62992125984252,0 0,25.368024649092778 -10.62992125984252,0 0,25.368024649092778 10.62992125984252,0 0,25.368024649092778 -10.62992125984252,0 0,25.368024649092778 10.62992125984252,0 0,25.368024649092778 -10.62992125984252,0 0,25.368024649092778 10.62992125984252,0 0,25.368024649092778 -10.62992125984252,0 0,25.368024649092778 10.62992125984252,0 0,25.368024649092778 -10.62992125984252,0 0,25.368024649092778 10.62992125984252,0 0,25.368024649092778 -10.62992125984252,0 0,25.368024649092778 10.62992125984252,0 0,25.368024649092778 -10.62992125984252,0 0,25.368024649092778 10.62992125984252,0 0,25.368024649092778 -10.62992125984252,0 0,25.368024649092778 10.62992125984252,0 0,25.368024649092778 -10.62992125984252,0 0,25.368024649092778 10.62992125984252,0 0,25.368024649092778 -10.62992125984252,0 0,25.368024649092778 10.62992125984252,0 0,25.368024649092778 -10.62992125984252,0 0,25.368024649092778 10.62992125984252,0 0,25.368024649092778 -10.62992125984252,0 0,25.368024649092778 10.62992125984252,0 0,25.368024649092778 -10.62992125984252,0 0,25.368024649092778 10.62992125984252,0 0,25.368024649092778 -10.62992125984252,0 0,25.368024649092778 10.62992125984252,0 0,25.368024649092778 -10.62992125984252,0 0,25.368024649092778 10.62992125984252,0 0,25.368024649092778 -10.62992125984252,0 0,25.368024649092778 10.62992125984252,0 0,25.368024649092778 -10.62992125984252,0 0,25.368024649092778 10.62992125984252,0 0,25.368024649092778 -10.62992125984252,0 0,25.368024649092778 10.62992125984252,0 0,25.368024649092778 -10.62992125984252,0 0,25.368024649092778 10.62992125984252,0 0,25.368024649092778 -10.62992125984252,0 0,25.368024649092778 10.62992125984252,0 0,25.368024649092778 -10.62992125984252,0 0,25.368024649092778 10.62992125984252,0 0,25.368024649092778 -10.62992125984252,0 0,25.368024649092778 10.62992125984252,0 0,25.368024649092778 -10.62992125984252,0 0,25.368024649092778 10.62992125984252,0 0,25.368024649092778 -10.62992125984252,0 0,25.368024649092778 10.62992125984252,0 0,25.368024649092778 -10.62992125984252,0 0,25.368024649092778 10.62992125984252,0 0,25.368024649092778 -10.62992125984252,0 0,25.368024649092778 10.62992125984252,0 0,25.368024649092778 -10.62992125984252,0 0,25.368024649092778 10.62992125984252,0 0,25.368024649092778 -10.62992125984252,0 0,25.368024649092778 -14.774922002674197,0 0,10.62992125984252 -25.404843262516714,0 0,-10.62992125984252 -25.404843262516714,0 0,10.62992125984252 -25.404843262516714,0 0,-10.62992125984252 -25.404843262516714,0 0,10.62992125984252 -25.404843262516714,0 0,-10.62992125984252 -25.404843262516714,0 0,10.62992125984252 -25.404843262516714,0 0,-10.62992125984252 -25.404843262516714,0 0,10.62992125984252 -25.404843262516714,0 0,-10.62992125984252 -25.404843262516714,0 0,10.62992125984252 -25.404843262516714,0 0,-10.62992125984252 -25.404843262516714,0 0,10.62992125984252 -25.404843262516714,0 0,-10.62992125984252 -25.404843262516714,0 0,10.62992125984252 -25.404843262516714,0 0,-10.62992125984252 -25.404843262516714,0 0,10.62992125984252 -25.404843262516714,0 0,-10.62992125984252 -25.404843262516714,0 0,10.62992125984252 -25.404843262516714,0 0,-10.62992125984252 -25.404843262516714,0 0,10.62992125984252 -25.404843262516714,0 0,-10.62992125984252 -25.404843262516714,0 0,10.62992125984252 -25.404843262516714,0 0,-10.62992125984252 -25.404843262516714,0 0,10.62992125984252 -25.404843262516714,0 0,-10.62992125984252 -25.404843262516714,0 0,10.62992125984252 -25.404843262516714,0 0,-10.62992125984252 -25.404843262516714,0 0,10.62992125984252 -25.404843262516714,0 0,-10.62992125984252 -25.404843262516714,0 0,10.62992125984252 -25.404843262516714,0 0,-10.62992125984252 -25.404843262516714,0 0,10.62992125984252 -25.404843262516714,0 0,-10.62992125984252 -25.404843262516714,0 0,10.62992125984252 -25.404843262516714,0 0,-10.62992125984252 -25.404843262516714,0 0,10.62992125984252 -25.404843262516714,0 0,-10.62992125984252 -25.404843262516714,0 0,10.62992125984252 -25.404843262516714,0 0,-10.62992125984252 -25.404843262516714,0 0,10.62992125984252 -25.404843262516714,0 0,-10.62992125984252 -25.404843262516714,0 0,10.62992125984252 -25.404843262516714,0 0,-10.62992125984252 -25.404843262516714,0 0,10.62992125984252 -25.404843262516714,0 0,-10.62992125984252 -25.404843262516714,0 0,10.62992125984252 -25.404843262516714,0 0,-10.62992125984252 -25.404843262516714,0 0,10.62992125984252 -25.404843262516714,0 0,-10.62992125984252 -25.404843262516714,0 0,10.62992125984252 -25.404843262516714,0 0,-10.62992125984252 -14.774922002674197,0 0,-25.368024649092778 -10.62992125984252,0 0,-25.368024649092778 10.62992125984252,0 0,-25.368024649092778 -10.62992125984252,0 0,-25.368024649092778 10.62992125984252,0 0,-25.368024649092778 -10.62992125984252,0 0,-25.368024649092778 10.62992125984252,0 0,-25.368024649092778 -10.62992125984252,0 0,-25.368024649092778 10.62992125984252,0 0,-25.368024649092778 -10.62992125984252,0 0,-25.368024649092778 10.62992125984252,0 0,-25.368024649092778 -10.62992125984252,0 0,-25.368024649092778 10.62992125984252,0 0,-25.368024649092778 -10.62992125984252,0 0,-25.368024649092778 10.62992125984252,0 0,-25.368024649092778 -10.62992125984252,0 0,-25.368024649092778 10.62992125984252,0 0,-25.368024649092778 -10.62992125984252,0 0,-25.368024649092778 10.62992125984252,0 0,-25.368024649092778 -10.62992125984252,0 0,-25.368024649092778 10.62992125984252,0 0,-25.368024649092778 -10.62992125984252,0 0,-25.368024649092778 10.62992125984252,0 0,-25.368024649092778 -10.62992125984252,0 0,-25.368024649092778 10.62992125984252,0 0,-25.368024649092778 -10.62992125984252,0 0,-25.368024649092778 10.62992125984252,0 0,-25.368024649092778 -10.62992125984252,0 0,-25.368024649092778 10.62992125984252,0 0,-25.368024649092778 -10.62992125984252,0 0,-25.368024649092778 10.62992125984252,0 0,-25.368024649092778 -10.62992125984252,0 0,-25.368024649092778 10.62992125984252,0 0,-25.368024649092778 -10.62992125984252,0 0,-25.368024649092778 10.62992125984252,0 0,-25.368024649092778 -10.62992125984252,0 0,-25.368024649092778 10.62992125984252,0 0,-25.368024649092778 -10.62992125984252,0 0,-25.368024649092778 10.62992125984252,0 0,-25.368024649092778 -10.62992125984252,0 0,-25.368024649092778 10.62992125984252,0 0,-25.368024649092778 -10.62992125984252,0 0,-25.368024649092778 10.62992125984252,0 0,-25.368024649092778 -10.62992125984252,0 0,-25.368024649092778 10.62992125984252,0 0,-25.368024649092778 -10.62992125984252,0 0,-25.368024649092778 10.62992125984252,0 0,-25.368024649092778 -10.62992125984252,0 0,-25.368024649092778 10.62992125984252,0 0,-25.368024649092778 -10.62992125984252,0 0,-25.368024649092778 10.62992125984252,0 0,-25.368024649092778 -10.62992125984252,0 0,-25.368024649092778 10.62992125984252,0 0,-25.368024649092778 -10.62992125984252,0 0,-25.368024649092778 10.62992125984252,0 0,-25.368024649092778 -10.62992125984252,0 0,-25.368024649092778 10.62992125984252,0 0,-25.368024649092778 -10.62992125984252,0 0,-25.368024649092778 10.62992125984252,0 0,-25.368024649092778 -10.62992125984252,0 0,-25.368024649092778 10.62992125984252,0 0,-25.368024649092778 -10.62992125984252,0 0,-25.368024649092778 10.62992125984252,0 0,-25.368024649092778 -10.62992125984252,0 0,-25.368024649092778 10.62992125984252,0 0,-25.368024649092778 -10.62992125984252,0 0,-25.368024649092778 10.62992125984252,0 0,-25.368024649092778 -10.62992125984252,0 0,-25.368024649092778 10.62992125984252,0 0,-25.368024649092778 z" />
    <rect
       style="fill:none;fill-opacity:1;stroke:#0000ff;stroke-width:1.03039002;stroke-opacity:1"
       id="rect4139"
       width="1416.2924"
       height="1015.8987"
       x="189.82288"
       y="175.90895" />
    <use
       x="0"
       y="0"
       xlink:href="#top"
       id="use4197"
       transform="translate(-1780.7711,2.6739605e-5)"
       width="100%"
       height="100%"
       style="fill:none" />
  </g>
</svg>
